<svg xmlns="http://www.w3.org/2000/svg" width="512" height="512" viewBox="0 0 512 512" fill="none">
  <defs>
    <filter id="shadow" x="-20%" y="-20%" width="140%" height="140%">
      <feDropShadow dx="0" dy="8" stdDeviation="10" flood-color="#808080" flood-opacity="0.14"/>
    </filter>
  </defs>
  <g filter="url(#shadow)">
    <circle cx="256" cy="256" r="212" fill="#fffefb"/>
    <circle cx="256" cy="256" r="212" stroke="#7d7d7d" stroke-width="14"/>
    <circle cx="256" cy="256" r="191" stroke="#7d7d7d" stroke-width="4"/>
    <circle cx="256" cy="256" r="146" stroke="#7d7d7d" stroke-width="4"/>

    <path d="M156 121c28-20 61-31 100-31 40 0 73 11 101 31" stroke="#7d7d7d" stroke-width="6" stroke-linecap="round"/>
    <path d="M356 391c-28 20-61 31-100 31-40 0-73-11-101-31" stroke="#7d7d7d" stroke-width="6" stroke-linecap="round"/>

    <g fill="#7d7d7d">
      <circle cx="135" cy="170" r="10"/>
      <circle cx="170" cy="136" r="10"/>
      <circle cx="214" cy="115" r="10"/>
      <circle cx="256" cy="108" r="10"/>
      <circle cx="298" cy="115" r="10"/>
      <circle cx="342" cy="136" r="10"/>
      <circle cx="377" cy="170" r="10"/>
      <circle cx="377" cy="342" r="10"/>
      <circle cx="342" cy="376" r="10"/>
      <circle cx="298" cy="397" r="10"/>
      <circle cx="256" cy="404" r="10"/>
      <circle cx="214" cy="397" r="10"/>
      <circle cx="170" cy="376" r="10"/>
      <circle cx="135" cy="342" r="10"/>
    </g>

    <text x="256" y="225" text-anchor="middle" fill="#404040" font-size="72" font-weight="600" font-style="italic" font-family="'Brush Script MT','Segoe Script','Lucida Handwriting',cursive">Получить</text>
    <text x="256" y="307" text-anchor="middle" fill="#404040" font-size="76" font-weight="600" font-style="italic" font-family="'Brush Script MT','Segoe Script','Lucida Handwriting',cursive">результат</text>

    <path d="M152 333h208" stroke="#7d7d7d" stroke-width="6" stroke-linecap="round"/>
  </g>
</svg>
